<svg width="65" height="64" viewBox="0 0 65 64" fill="none" xmlns="http://www.w3.org/2000/svg">
<g clip-path="url(#clip0_2035_947)">
<path d="M23.686 64.5C29.636 64.5 34.436 59.7 34.436 53.75V43H23.686C17.736 43 12.936 47.8 12.936 53.75C12.936 59.7 17.736 64.5 23.686 64.5Z" fill="#0ACF83"/>
<path d="M12.936 32.25C12.936 26.3 17.736 21.5 23.686 21.5H34.436V43H23.686C17.736 43 12.936 38.2 12.936 32.25Z" fill="#A259FF"/>
<path d="M12.936 10.75C12.936 4.8 17.736 0 23.686 0H34.436V21.5H23.686C17.736 21.5 12.936 16.7 12.936 10.75Z" fill="#F24E1E"/>
<path d="M34.436 0H45.186C51.136 0 55.936 4.8 55.936 10.75C55.936 16.7 51.136 21.5 45.186 21.5H34.436V0Z" fill="#FF7262"/>
<path d="M55.936 32.25C55.936 38.2 51.136 43 45.186 43C39.236 43 34.436 38.2 34.436 32.25C34.436 26.3 39.236 21.5 45.186 21.5C51.136 21.5 55.936 26.3 55.936 32.25Z" fill="#1ABCFE"/>
</g>
<defs>
<clipPath id="clip0_2035_947">
<rect width="64" height="64" fill="white" transform="translate(0.936035)"/>
</clipPath>
</defs>
</svg>
