<svg width="65" height="64" viewBox="0 0 65 64" fill="none" xmlns="http://www.w3.org/2000/svg">
<g clip-path="url(#clip0_2035_951)">
<path d="M0.936035 0H64.936V64.0005H0.936035V0Z" fill="#F0DB4F"/>
<path d="M60.1096 49.3683C59.6511 46.5128 57.7891 44.1143 52.2736 41.8778C50.3576 40.9973 48.2216 40.3668 47.5851 38.9148C47.3591 38.0697 47.3291 37.5937 47.4721 37.0822C47.8826 35.4222 49.8641 34.9047 51.4346 35.3807C52.4461 35.7197 53.4036 36.4992 53.9811 37.7427C56.6821 35.9937 56.6766 36.0052 58.5626 34.8032C57.8721 33.7327 57.5036 33.2387 57.0516 32.7807C55.4271 30.9662 53.2136 30.0317 49.6736 30.1032L47.8296 30.3417C46.0626 30.7882 44.3786 31.7157 43.3911 32.9592C40.4281 36.3212 41.2731 42.2053 44.8786 44.6268C48.4306 47.2928 53.6486 47.8993 54.3151 50.3923C54.9636 53.4444 52.0721 54.4324 49.1981 54.0814C47.0801 53.6409 45.9021 52.5644 44.6286 50.6068C42.2846 51.9634 42.2846 51.9634 39.8746 53.3494C40.4461 54.5989 41.0466 55.1644 42.0046 56.2469C46.5386 60.8459 57.8846 60.6199 59.9196 53.6589C60.0021 53.4199 60.5501 51.8259 60.1096 49.3683ZM36.6671 30.4717H30.8126L30.7886 45.6078C30.7886 48.8268 30.9551 51.7779 30.4316 52.6824C29.5751 54.4614 27.3556 54.2409 26.3441 53.8959C25.3146 53.3899 24.7911 52.6704 24.1846 51.6534C24.0181 51.3614 23.8931 51.1353 23.8511 51.1178L19.0911 54.0329C19.8826 55.6574 21.0486 57.0674 22.5421 57.9834C24.7731 59.3224 27.7716 59.7329 30.9076 59.0129C32.9486 58.4184 34.7096 57.1869 35.6316 55.3124C36.9646 52.8549 36.6786 49.8803 36.6666 46.5903C36.6966 41.2228 36.6671 35.8562 36.6671 30.4717Z" fill="#323330"/>
</g>
<defs>
<clipPath id="clip0_2035_951">
<rect x="0.936035" width="64" height="64.0005" rx="5" fill="white"/>
</clipPath>
</defs>
</svg>
