<svg width="64" height="64" viewBox="0 0 64 64" fill="none" xmlns="http://www.w3.org/2000/svg">
<path d="M54.178 31.5719C54.178 30.1896 53.6289 28.8639 52.6515 27.8865C51.674 26.909 50.3483 26.3599 48.966 26.3599C48.78 26.3599 48.598 26.3699 48.418 26.3879L55.578 5.27393H25.154L32.302 26.3699C32.198 26.3699 32.092 26.3599 31.986 26.3599C30.743 26.3611 29.5412 26.8063 28.5975 27.6154C27.6537 28.4244 27.0301 29.544 26.8389 30.7723C26.6478 32.0006 26.9018 33.2567 27.5551 34.3142C28.2085 35.3718 29.2181 36.1611 30.402 36.5399C29.2935 38.449 27.9131 40.1865 26.304 41.6979C24.2101 43.6994 21.7228 45.2434 19 46.2319C17.4744 45.5084 16.2812 44.2314 15.6628 42.6602C15.0443 41.089 15.0469 39.3413 15.67 37.7719C15.824 37.4119 15.98 37.0479 16.13 36.6839C17.2927 36.4103 18.3263 35.746 19.058 34.8019C19.7896 33.8578 20.1752 32.6912 20.1501 31.497C20.125 30.3029 19.6908 29.1535 18.9201 28.241C18.1494 27.3285 17.0888 26.7081 15.9157 26.4836C14.7426 26.2591 13.5279 26.444 12.4747 27.0074C11.4215 27.5709 10.5936 28.4787 10.1294 29.5792C9.6651 30.6797 9.5926 31.9062 9.92399 33.0538C10.2554 34.2013 10.9706 35.2003 11.95 35.8839C10.2851 38.9006 9.01536 42.1191 8.17204 45.4599C7.46404 49.7299 8.17204 54.2599 11.862 56.8219C20.462 62.7839 29.8 53.1259 39.644 50.6999C43.212 49.8199 47.128 49.9619 50.27 48.1399C51.4058 47.4942 52.3852 46.6059 53.1385 45.5384C53.8917 44.4709 54.4003 43.2504 54.628 41.9639C54.8368 40.7387 54.7973 39.4839 54.5118 38.2742C54.2263 37.0645 53.7006 35.9245 52.966 34.9219C53.7501 33.9849 54.1792 32.8017 54.178 31.5799V31.5719ZM37.2 31.5999V31.5819C37.2006 30.6852 36.9696 29.8035 36.5295 29.0222C36.0895 28.2408 35.4552 27.5863 34.688 27.1219L40.376 15.5999L46.076 27.2279C45.361 27.7031 44.7747 28.348 44.3695 29.1049C43.9643 29.8619 43.7529 30.7074 43.754 31.5659V31.6799L37.2 31.5999Z" fill="#99425B"/>
<path d="M55.4519 31.572C55.4495 30.0609 54.9204 28.5978 53.9556 27.4348C52.9907 26.2718 51.6506 25.4815 50.1659 25.2L57.3539 4H23.3779L30.5779 25.242C29.3204 25.5221 28.1748 26.1704 27.2873 27.1043C26.3997 28.0382 25.8106 29.2154 25.5949 30.4856C25.3792 31.7557 25.5468 33.0614 26.0764 34.2359C26.6059 35.4104 27.4733 36.4006 28.5679 37.08C27.6637 38.4238 26.6118 39.6622 25.4319 40.772C23.6056 42.5187 21.4598 43.8972 19.1119 44.832C18.0098 44.192 17.1745 43.1772 16.7581 41.9726C16.3418 40.768 16.3723 39.454 16.8439 38.27L16.9239 38.084L17.0719 37.734C18.4043 37.2718 19.5498 36.388 20.335 35.2165C21.1201 34.045 21.5022 32.6496 21.4233 31.2416C21.3445 29.8335 20.809 28.4895 19.8979 27.413C18.9868 26.3365 17.7498 25.5862 16.3742 25.2756C14.9985 24.9651 13.5592 25.1112 12.274 25.6919C10.9888 26.2726 9.92786 27.2562 9.25174 28.4938C8.57561 29.7315 8.32116 31.1557 8.5269 32.5509C8.73263 33.9461 9.38736 35.2362 10.3919 36.226C10.1759 36.688 9.94794 37.156 9.71394 37.638C8.41778 40.0225 7.47461 42.5825 6.91394 45.238C5.98394 50.838 7.48394 55.324 11.1359 57.854C13.0992 59.2579 15.4544 60.0087 17.8679 60C22.1319 60 26.4459 57.858 30.6679 55.762C33.6177 54.1579 36.7299 52.8727 39.9519 51.928C41.1405 51.6554 42.342 51.4424 43.5519 51.29C46.1142 51.0854 48.6127 50.3872 50.9099 49.234C52.206 48.494 53.3235 47.4779 54.1831 46.2578C55.0426 45.0378 55.6233 43.6435 55.8839 42.174C56.3095 39.6777 55.8194 37.1118 54.5039 34.948C55.1264 33.932 55.4532 32.7635 55.4519 31.572ZM52.9059 31.572C52.9059 32.3513 52.6749 33.113 52.2419 33.7609C51.809 34.4089 51.1937 34.9139 50.4737 35.2121C49.7538 35.5103 48.9616 35.5883 48.1973 35.4363C47.433 35.2843 46.731 34.909 46.1799 34.358C45.6289 33.807 45.2537 33.1049 45.1017 32.3407C44.9496 31.5764 45.0276 30.7842 45.3259 30.0642C45.6241 29.3443 46.1291 28.7289 46.777 28.296C47.4249 27.8631 48.1867 27.632 48.9659 27.632C50.0104 27.6336 51.0116 28.0492 51.7502 28.7878C52.4887 29.5263 52.9044 30.5275 52.9059 31.572ZM53.7999 6.546L47.4519 25.266C47.1802 25.3322 46.913 25.4157 46.6519 25.516L40.3819 12.716L34.0919 25.44C33.818 25.3456 33.538 25.2694 33.2539 25.212L26.9279 6.546H53.7999ZM31.9859 27.632C32.7652 27.632 33.527 27.8631 34.1749 28.296C34.8228 28.7289 35.3278 29.3443 35.626 30.0642C35.9242 30.7842 36.0023 31.5764 35.8502 32.3407C35.6982 33.1049 35.323 33.807 34.7719 34.358C34.2209 34.909 33.5189 35.2843 32.7546 35.4363C31.9903 35.5883 31.1981 35.5103 30.4782 35.2121C29.7582 34.9139 29.1429 34.4089 28.71 33.7609C28.277 33.113 28.0459 32.3513 28.0459 31.572C28.047 30.5274 28.4624 29.5258 29.2011 28.7872C29.9398 28.0485 30.9413 27.6331 31.9859 27.632ZM14.9399 27.67C15.7192 27.67 16.481 27.9011 17.1289 28.334C17.7768 28.7669 18.2818 29.3823 18.58 30.1022C18.8782 30.8222 18.9563 31.6144 18.8042 32.3787C18.6522 33.1429 18.277 33.845 17.7259 34.396C17.1749 34.947 16.4729 35.3223 15.7086 35.4743C14.9443 35.6263 14.1521 35.5483 13.4322 35.2501C12.7122 34.9519 12.0969 34.4469 11.664 33.7989C11.231 33.151 10.9999 32.3893 10.9999 31.61C11.001 30.5657 11.4162 29.5645 12.1544 28.8259C12.8926 28.0873 13.8957 27.6716 14.9399 27.67ZM53.3739 41.738C53.1765 42.8405 52.739 43.8862 52.0923 44.8007C51.4456 45.7153 50.6056 46.4763 49.6319 47.03C47.6126 48.0123 45.4253 48.6027 43.1859 48.77C41.9219 48.952 40.6159 49.14 39.3379 49.456C35.9359 50.4415 32.6502 51.7913 29.5379 53.482C23.2099 56.624 17.7379 59.338 12.5939 55.768C8.81994 53.152 8.99394 48.312 9.43394 45.66C9.95097 43.2454 10.8153 40.9186 11.9999 38.752L12.5399 37.634C13.0774 37.848 13.6411 37.9892 14.2159 38.054C13.7061 39.8519 13.8479 41.7722 14.6164 43.4757C15.3849 45.1792 16.7306 46.5564 18.4159 47.364L18.9059 47.616L19.4239 47.43C22.3142 46.3877 24.9547 44.7528 27.1759 42.63C28.6426 41.2489 29.9312 39.6902 31.0119 37.99C32.3942 38.2002 33.8074 37.9579 35.0406 37.2992C36.2739 36.6405 37.2611 35.6006 37.8549 34.3349C38.4488 33.0691 38.6174 31.6453 38.3358 30.2758C38.0541 28.9063 37.3371 27.6646 36.2919 26.736L40.3679 18.494L44.4859 26.894C43.3143 28.0232 42.6103 29.5518 42.514 31.1762C42.4176 32.8006 42.936 34.4017 43.9659 35.6615C44.9959 36.9213 46.4622 37.7474 48.0733 37.9757C49.6844 38.2041 51.3225 37.8179 52.6619 36.894C53.4049 38.3922 53.6535 40.0875 53.3719 41.736L53.3739 41.738Z" fill="white"/>
</svg>
