<svg width="67" height="64" viewBox="0 0 67 64" fill="none" xmlns="http://www.w3.org/2000/svg">
<path fill-rule="evenodd" clip-rule="evenodd" d="M39.2235 1.06177C38.7718 1.06177 38.3523 1.15886 37.965 1.2883C38.7879 1.83845 39.2397 2.5666 39.4656 3.39183C39.4818 3.50509 39.514 3.586 39.5301 3.69926C39.5463 3.79635 39.5624 3.89344 39.5624 3.99053C39.627 5.41445 39.1913 5.59244 38.8847 6.43385C38.4168 7.51798 38.5459 8.68301 39.1106 9.6215C39.159 9.73477 39.2235 9.86421 39.3042 9.97748C38.6911 5.8837 42.0956 5.26882 42.7248 3.99053C42.7732 2.87404 41.8536 2.12971 41.1275 1.61192C40.4337 1.19122 39.8044 1.06177 39.2235 1.06177ZM44.3545 1.98408C44.2899 2.35624 44.3383 2.25916 44.3222 2.45333C44.3061 2.58278 44.3061 2.74459 44.29 2.87404C44.2578 3.00348 44.2254 3.13293 44.177 3.26238C44.1448 3.39183 44.0964 3.52128 44.048 3.65072C43.9834 3.78018 43.935 3.89344 43.8705 4.02288C43.8221 4.08764 43.7898 4.15233 43.7414 4.21706C43.7092 4.2656 43.6768 4.31414 43.6446 4.36269C43.5639 4.47596 43.4832 4.58922 43.4026 4.6863C43.3058 4.78339 43.2251 4.89666 43.1121 4.97757V4.99377C43.0153 5.07467 42.9185 5.17176 42.8056 5.25266C42.4667 5.51155 42.0795 5.70573 41.7245 5.94844C41.6116 6.02935 41.4986 6.09407 41.4018 6.19116C41.2889 6.27206 41.1921 6.35296 41.0953 6.45005C40.9823 6.54714 40.9016 6.64423 40.8048 6.75749C40.7242 6.85458 40.6273 6.96784 40.5628 7.08111C40.4821 7.19438 40.4015 7.30765 40.3369 7.42091C40.2723 7.55035 40.224 7.66363 40.1594 7.79307C40.111 7.92252 40.0626 8.03579 40.0303 8.16523C39.9819 8.31086 39.9497 8.44031 39.9174 8.56976C39.9012 8.63451 39.9012 8.71539 39.8852 8.78011C39.869 8.84486 39.869 8.90956 39.8529 8.97429C39.8529 9.10373 39.8368 9.24936 39.8368 9.37881C39.8368 9.47589 39.8368 9.57298 39.8529 9.67007C39.8529 9.79951 39.8691 9.92896 39.9013 10.0746C39.9175 10.204 39.9497 10.3335 39.982 10.4629C40.0304 10.5924 40.0627 10.7218 40.1111 10.8513C40.1433 10.9322 40.1917 11.0131 40.224 11.0778L36.513 9.6377C35.8837 9.45971 35.2706 9.29791 34.6413 9.15228C34.3025 9.07137 33.9636 8.99046 33.6248 8.90956C32.6567 8.71539 31.6725 8.56976 30.6882 8.47268C30.656 8.47268 30.6398 8.45647 30.6075 8.45647C29.6394 8.35939 28.6875 8.31085 27.7194 8.31085C27.0094 8.31085 26.2995 8.34318 25.6057 8.39175C24.6214 8.4565 23.6372 8.58592 22.653 8.74773C22.4109 8.78007 22.1689 8.82864 21.9269 8.87718C21.4267 8.97426 20.9427 9.08753 20.4747 9.2008C20.2327 9.26555 19.9907 9.33025 19.7487 9.39497C19.5066 9.49205 19.2807 9.60532 19.0548 9.70241C18.8774 9.78331 18.6999 9.86422 18.5224 9.94513C18.4901 9.96133 18.4578 9.96133 18.4417 9.97746C18.2804 10.0584 18.1352 10.1231 17.9899 10.204C17.9415 10.2202 17.9093 10.2363 17.877 10.2525C17.6995 10.3334 17.522 10.4305 17.3768 10.5114C17.2639 10.56 17.1509 10.6247 17.0541 10.6732C17.0057 10.7056 16.9412 10.738 16.9089 10.7541C16.7637 10.8351 16.6185 10.916 16.4894 10.9969C16.3442 11.0778 16.2151 11.1587 16.1021 11.2396C15.9892 11.3205 15.8762 11.3852 15.7794 11.4661C15.7633 11.4823 15.7472 11.4823 15.731 11.4984C15.6342 11.5632 15.5213 11.6441 15.4245 11.725C15.4245 11.725 15.4083 11.7412 15.3922 11.7573C15.3116 11.8221 15.2309 11.8868 15.1502 11.9515C15.118 11.9677 15.0856 12 15.0534 12.0162C14.9727 12.081 14.892 12.1619 14.8114 12.2266C14.7952 12.2589 14.763 12.2751 14.7468 12.2913C14.65 12.3884 14.5532 12.4693 14.4564 12.5664C14.4402 12.5664 14.4402 12.5826 14.4241 12.5988C14.3273 12.6797 14.2305 12.7767 14.1337 12.8738C14.1175 12.89 14.1175 12.9062 14.1014 12.9062C14.0208 12.9871 13.9401 13.068 13.8594 13.1651C13.8272 13.1974 13.7787 13.2298 13.7465 13.2621C13.6658 13.3592 13.569 13.4563 13.4722 13.5534C13.456 13.5857 13.4238 13.6019 13.4076 13.6343C13.2785 13.7638 13.1656 13.8932 13.0365 14.0227C13.0203 14.0389 13.0043 14.055 12.9881 14.0712C12.7299 14.3463 12.4556 14.6213 12.1652 14.8641C11.8748 15.123 11.5682 15.3657 11.2617 15.576C10.939 15.8026 10.6324 15.9967 10.2936 16.1909C9.97085 16.3689 9.63201 16.5307 9.27704 16.6763C8.93821 16.822 8.58324 16.9514 8.22827 17.0647C7.55059 17.2103 6.85679 17.4854 6.25979 17.5339C6.13071 17.5339 5.9855 17.5663 5.85642 17.5825C5.7112 17.6148 5.58212 17.6472 5.45304 17.6796C5.32397 17.7281 5.19488 17.7766 5.0658 17.8252C4.93672 17.8737 4.80764 17.9384 4.67856 18.0032C4.56562 18.0841 4.43654 18.1488 4.32359 18.2297C4.21065 18.3106 4.0977 18.4077 4.00089 18.5048C3.88795 18.5857 3.775 18.699 3.67819 18.796C3.58138 18.9093 3.48457 19.0064 3.40389 19.1197C3.32322 19.2491 3.22641 19.3624 3.16186 19.4918C3.08119 19.6051 3.00052 19.7345 2.93597 19.864C2.87141 20.0096 2.8069 20.1391 2.75849 20.2847C2.71009 20.4141 2.66168 20.5598 2.61327 20.7054C2.58103 20.8348 2.54871 20.9643 2.5326 21.0937C2.5326 21.11 2.51644 21.1261 2.51644 21.1423C2.4842 21.2879 2.4842 21.4821 2.46804 21.5792C2.45188 21.6924 2.43579 21.7895 2.43579 21.9028C2.43579 21.9675 2.43579 22.0484 2.45195 22.1131C2.46811 22.2264 2.4842 22.3235 2.51652 22.4206C2.54876 22.5177 2.58108 22.6147 2.62946 22.7118V22.728C2.67786 22.8251 2.74241 22.9222 2.80694 23.0193C2.87151 23.1164 2.93603 23.2135 3.0167 23.3106C3.09737 23.3915 3.19419 23.4885 3.291 23.5695C3.38781 23.6665 3.48462 23.7474 3.59756 23.8283C3.9848 24.1681 4.08161 24.2814 4.5818 24.5403C4.66247 24.5889 4.74315 24.6212 4.83996 24.6698C4.85613 24.6698 4.87221 24.686 4.88837 24.686C4.88837 24.7183 4.88837 24.7345 4.90453 24.7669C4.92069 24.8963 4.95294 25.0258 4.9852 25.1552C5.01745 25.3008 5.06589 25.4303 5.11429 25.5436C5.1627 25.6406 5.19496 25.7377 5.24337 25.8348C5.25953 25.8672 5.27562 25.8996 5.29178 25.9157C5.35634 26.0452 5.42085 26.1584 5.48539 26.2717C5.56607 26.385 5.64674 26.4982 5.72742 26.6115C5.80809 26.7086 5.9049 26.8219 6.00171 26.9189C6.09852 27.016 6.19533 27.0969 6.30828 27.194C6.30828 27.194 6.32445 27.2102 6.34053 27.2102C6.43734 27.2911 6.53415 27.3721 6.63096 27.4368C6.7439 27.5177 6.85685 27.5824 6.98593 27.6471C7.09888 27.7119 7.22796 27.7766 7.35703 27.8251C7.45385 27.8737 7.56679 27.906 7.67973 27.9384C7.6959 27.9546 7.71198 27.9546 7.7443 27.9707C7.80887 27.987 7.88951 28.0031 7.95405 28.0193C7.90565 28.893 7.88949 29.7183 8.01862 30.0095C8.16383 30.3331 8.87377 29.3461 9.58372 28.2134C9.48691 29.3299 9.42236 30.6406 9.58372 31.0289C9.7612 31.4334 10.7293 30.1713 11.5683 28.7798C23.0081 26.1261 33.4474 34.0548 34.5446 45.252C34.3349 43.5044 32.1889 42.5336 31.2047 42.7763C30.7206 43.9737 29.8977 45.5109 28.5747 46.4656C28.6876 45.3976 28.6392 44.2973 28.4133 43.2294C28.0583 44.718 27.3645 46.1096 26.4126 47.307C24.8797 47.4202 23.3469 46.6759 22.5401 45.5594C22.4756 45.5109 22.4595 45.4138 22.4111 45.3491C22.3627 45.2358 22.3142 45.1226 22.282 45.0093C22.2336 44.896 22.2013 44.7827 22.1852 44.6695C22.169 44.5562 22.169 44.4429 22.169 44.3135C22.169 44.2326 22.169 44.1517 22.169 44.0708C22.1852 43.9575 22.2174 43.8442 22.2497 43.731C22.2819 43.6177 22.3142 43.5044 22.3626 43.3912C22.4272 43.2779 22.4756 43.1646 22.5563 43.0514C22.8305 42.2747 22.8305 41.6436 22.3304 41.2715C22.2336 41.2067 22.1367 41.1582 22.0238 41.1097C21.9592 41.0935 21.8786 41.0611 21.814 41.0449C21.7656 41.0287 21.7334 41.0126 21.685 40.9964C21.572 40.964 21.4591 40.9316 21.3461 40.9155C21.2332 40.8831 21.1202 40.8669 21.0073 40.8669C20.8943 40.8507 20.7653 40.8346 20.6523 40.8346C20.5716 40.8346 20.491 40.8508 20.4103 40.8508C20.2812 40.8508 20.1683 40.867 20.0553 40.8993C19.9424 40.9156 19.8294 40.9317 19.7165 40.9641C19.6035 40.9964 19.4906 41.0288 19.3776 41.0774C19.2647 41.1259 19.1679 41.1744 19.0549 41.223C18.9581 41.2715 18.8613 41.3362 18.7484 41.3848C14.9889 43.8443 17.2317 49.6047 19.7972 51.2714C18.8291 51.4493 17.8448 51.6597 17.5705 51.8701C17.5544 51.8863 17.5383 51.9024 17.5383 51.9024C18.2321 52.3231 18.9582 52.6791 19.7165 52.9865C20.7492 53.3263 21.8463 53.6338 22.3304 53.7632V53.7794C23.6696 54.0545 25.0249 54.1516 26.3964 54.0707C33.5442 53.5691 39.4013 48.1161 40.4662 40.9317C40.4984 41.0773 40.5307 41.2068 40.563 41.3524C40.6114 41.6437 40.6759 41.9511 40.7082 42.2586V42.2748C40.7404 42.4204 40.7566 42.566 40.7728 42.6955V42.7602C40.7889 42.9059 40.805 43.0515 40.805 43.1809C40.8212 43.3589 40.8372 43.5369 40.8372 43.7149V43.9738C40.8372 44.0547 40.8534 44.1518 40.8534 44.2327C40.8534 44.3298 40.8372 44.4269 40.8372 44.524V44.7505C40.8372 44.8638 40.8211 44.9608 40.8211 45.0741C40.8211 45.1389 40.8211 45.2036 40.8049 45.2845C40.8049 45.3977 40.7888 45.511 40.7888 45.6404C40.7726 45.689 40.7726 45.7375 40.7726 45.7861C40.7564 45.9155 40.7403 46.0288 40.7242 46.1582C40.7242 46.2068 40.7242 46.2553 40.708 46.3039C40.6918 46.4657 40.6596 46.6113 40.6435 46.7731V46.7893V46.8055C40.6112 46.9512 40.5789 47.113 40.5466 47.2586V47.3072C40.5144 47.4528 40.4821 47.5984 40.4498 47.744C40.4498 47.7603 40.4337 47.7926 40.4337 47.8088C40.4014 47.9544 40.3691 48.1 40.3207 48.2457V48.2942C40.2723 48.456 40.2239 48.6016 40.1917 48.7473C40.1755 48.7635 40.1755 48.7796 40.1755 48.7796C40.1271 48.9414 40.0787 49.1032 40.0303 49.265C39.9657 49.4269 39.9173 49.5725 39.8528 49.7343C39.7882 49.8961 39.7399 50.0579 39.6753 50.2035C39.6107 50.3654 39.5462 50.511 39.4817 50.6728H39.4655C39.4009 50.8184 39.3364 50.9802 39.2557 51.1259C39.2396 51.1744 39.2235 51.2068 39.2073 51.2391C39.1912 51.2553 39.1912 51.2715 39.1751 51.2877C38.1263 53.4074 36.5774 55.2682 34.6412 56.7245C34.5121 56.8054 34.383 56.9025 34.2539 56.9995C34.2217 57.0319 34.1732 57.0481 34.141 57.0804C34.028 57.1614 33.9151 57.2423 33.786 57.3232L33.8344 57.4203H33.8506C34.0765 57.3879 34.3023 57.3555 34.5282 57.3232H34.5444C34.9639 57.2584 35.3834 57.1775 35.8029 57.0966C35.9159 57.0804 36.045 57.0481 36.1579 57.0157C36.2386 56.9995 36.3031 56.9834 36.3838 56.9672C36.4967 56.951 36.6097 56.9186 36.7226 56.9024C36.8194 56.8701 36.9162 56.8539 37.0131 56.8215C38.6266 56.4332 40.1917 55.8992 41.6922 55.2682C39.1267 58.7794 35.69 61.6111 31.6724 63.4719C33.5279 63.3425 35.3834 63.035 37.1744 62.5172C43.6768 60.5917 49.1466 56.2066 52.422 50.3006C51.7605 54.0384 50.2761 57.5982 48.0817 60.705C49.6468 59.6694 51.0828 58.472 52.3897 57.1128C56.004 53.3264 58.3758 48.5207 59.1826 43.359C59.7312 45.9156 59.8925 48.5531 59.6505 51.1582C71.3 34.8639 60.6186 17.971 56.1492 13.5213C56.133 13.4889 56.117 13.4727 56.117 13.4404C56.1008 13.4566 56.1008 13.4566 56.1008 13.4727C56.1008 13.4565 56.1008 13.4565 56.0846 13.4404C56.0846 13.6345 56.0685 13.8287 56.0524 14.0229C56.004 14.395 55.9556 14.751 55.891 15.107C55.8104 15.463 55.7135 15.8189 55.6167 16.1749C55.5038 16.5147 55.3747 16.8707 55.2295 17.2105C55.0843 17.5341 54.9229 17.8739 54.7454 18.1976C54.568 18.505 54.3743 18.8286 54.1646 19.1199C53.9548 19.4273 53.7289 19.7186 53.503 19.9936C53.261 20.2849 53.0029 20.5438 52.7447 20.8027C52.5833 20.9483 52.4381 21.0778 52.2768 21.2072C52.1477 21.3205 52.0348 21.4176 51.9057 21.5308C51.6152 21.7574 51.3248 21.9677 51.0021 22.1619C50.6955 22.3561 50.3729 22.5502 50.0502 22.712C49.7113 22.8739 49.3725 23.0195 49.0336 23.1651C48.6948 23.2946 48.3398 23.4078 47.9849 23.5049C47.6299 23.602 47.2588 23.6829 46.9038 23.7476C46.5327 23.8124 46.1616 23.8447 45.8066 23.8771C45.5485 23.8933 45.2903 23.9094 45.0322 23.9094C44.661 23.9094 44.2899 23.8771 43.935 23.8447C43.5639 23.8123 43.1928 23.7638 42.8378 23.6828C42.4667 23.6181 42.1117 23.521 41.7567 23.4078H41.7406C42.0956 23.3754 42.4505 23.343 42.8055 23.2783C43.1766 23.2136 43.5316 23.1327 43.8865 23.0356C44.2415 22.9385 44.5965 22.8253 44.9353 22.6958C45.2903 22.5664 45.6291 22.4046 45.9518 22.2427C46.2907 22.0809 46.5972 21.9029 46.9199 21.7088C47.2265 21.4984 47.5331 21.2881 47.8235 21.0615C48.1139 20.835 48.3882 20.5923 48.6464 20.3334C48.9207 20.0907 49.1627 19.8156 49.4047 19.5405C49.6467 19.2493 49.8726 18.958 50.0824 18.6667C50.1146 18.6182 50.147 18.5535 50.1792 18.5049C50.3406 18.246 50.5019 17.9871 50.6471 17.7282C50.8246 17.4046 50.986 17.081 51.1312 16.7412C51.2764 16.4014 51.4055 16.0616 51.5184 15.7056C51.6314 15.3658 51.712 15.0098 51.7927 14.6539C51.8573 14.2817 51.9218 13.9257 51.9541 13.5697C51.9863 13.1976 52.0186 12.8254 52.0186 12.4694C52.0186 12.2105 52.0024 11.9516 51.9864 11.6928C51.9541 11.3206 51.9057 10.9646 51.8573 10.6086C51.7927 10.2365 51.7121 9.88049 51.6153 9.5245C51.5023 9.18471 51.3894 8.82872 51.2603 8.48893C51.1312 8.14912 50.9699 7.80932 50.8085 7.4857C50.631 7.16208 50.4536 6.83846 50.2599 6.53103C50.0502 6.22359 49.8404 5.93233 49.6145 5.64107C49.3725 5.36599 49.1305 5.09092 48.8723 4.81584C48.7432 4.6864 48.598 4.54077 48.4528 4.41132C47.7267 3.84498 46.9684 3.31101 46.21 2.82558C46.0971 2.76084 46.0003 2.71232 45.8873 2.66377C45.3549 2.32397 44.8547 2.14589 44.3545 1.98408Z" fill="#E0234E"/>
</svg>
