<svg width="63" height="64" viewBox="0 0 63 64" fill="none" xmlns="http://www.w3.org/2000/svg">
<rect x="0.150024" width="62.7161" height="64" rx="5" fill="white"/>
<path d="M53.5738 46.1415L35.0031 6.70293C34.7723 6.21721 34.4143 5.80304 33.9671 5.50436C33.5198 5.20569 33.0001 5.03365 32.463 5.00651C31.9252 4.97071 31.3878 5.08309 30.9094 5.33142C30.431 5.57975 30.0299 5.95451 29.7496 6.41495L9.60849 39.0385C9.3028 39.5312 9.14383 40.1008 9.15021 40.6806C9.15658 41.2603 9.32804 41.8263 9.64449 42.3121L19.4901 57.562C19.8627 58.1337 20.4101 58.5698 21.0506 58.8054C21.6911 59.0409 22.3906 59.0633 23.0449 58.8692L51.6254 50.4163C52.5006 50.1575 53.2161 49.5388 53.5896 48.7176C53.9631 47.8964 53.9586 46.9559 53.5738 46.1415ZM49.416 47.8334L25.1643 55.0038C24.9963 55.055 24.8179 55.0617 24.6464 55.0234C24.475 54.9851 24.3165 54.903 24.1862 54.7852C24.0559 54.6674 23.9584 54.5178 23.9031 54.3511C23.8478 54.1844 23.8366 54.0062 23.8706 53.8339L32.5327 12.3502C32.6947 11.574 33.7679 11.4502 34.1054 12.1702L50.145 46.2292C50.2159 46.3811 50.253 46.5465 50.2538 46.7141C50.2545 46.8817 50.2189 47.0475 50.1494 47.2C50.0799 47.3525 49.9781 47.4881 49.8511 47.5974C49.7241 47.7068 49.5771 47.7873 49.416 47.8334Z" fill="black"/>
</svg>
