<svg width="64" height="62" viewBox="0 0 64 62" fill="none" xmlns="http://www.w3.org/2000/svg">
<path d="M42.4163 40.803C44.409 40.5967 45.9208 38.8789 45.852 36.8172C45.7835 34.7557 44.0654 33.1064 42.0039 33.1064H41.8666C39.7361 33.1751 38.087 34.9618 38.1558 37.092C38.2245 38.1229 38.6367 39.0162 39.2552 39.6347C36.9188 44.239 33.3456 47.6062 27.9856 50.4237C24.3436 52.3479 20.5642 53.0351 16.7849 52.5542C13.6925 52.1418 11.2874 50.7675 9.77541 48.4995C7.5766 45.1323 7.37051 41.4901 9.22592 37.848C10.5316 35.2366 12.5929 33.3124 13.8986 32.3504C13.6238 31.457 13.2114 29.9452 13.0053 28.8458C3.04123 36.0614 4.07208 45.8196 7.09566 50.4237C9.36324 53.8599 13.9674 55.9901 19.0524 55.9901C20.4267 55.9901 21.801 55.8526 23.1754 55.5092C31.9713 53.7911 38.6369 48.5683 42.4163 40.803ZM54.5106 32.2818C49.288 26.1657 41.5917 22.7985 32.7959 22.7985H31.6965C31.078 21.5615 29.7723 20.7368 28.3293 20.7368H28.1917C26.0617 20.8055 24.4126 22.5922 24.4811 24.7226C24.5499 26.7841 26.2678 28.4335 28.3293 28.4335H28.4666C29.9784 28.3647 31.2841 27.4026 31.8338 26.0969H33.0707C38.2933 26.0969 43.2409 27.6087 47.7077 30.5637C51.1434 32.8315 53.6173 35.7865 54.9915 39.3598C56.1597 42.2461 56.091 45.0636 54.854 47.4689C52.9301 51.1109 49.7004 53.1039 45.4399 53.1039C42.6911 53.1039 40.08 52.2791 38.7055 51.6606C37.9497 52.3479 36.5752 53.4473 35.6131 54.1347C38.5682 55.509 41.5917 56.265 44.4778 56.265C51.0746 56.265 55.9536 52.6227 57.809 48.9807C59.8018 44.9948 59.6642 38.1229 54.5106 32.2818ZM19.6021 41.971C19.6709 44.0327 21.3888 45.6818 23.4503 45.6818H23.5878C25.7181 45.6133 27.3672 43.8264 27.2984 41.6962C27.2299 39.6344 25.5118 37.9853 23.4503 37.9853H23.313C23.1754 37.9853 22.9691 37.9853 22.832 38.0539C20.0145 33.381 18.8464 28.2959 19.2587 22.7983C19.5334 18.6751 20.9078 15.1016 23.313 12.1466C25.3057 9.60392 29.1538 8.36698 31.7652 8.29843C39.0491 8.1609 42.1412 17.2318 42.3475 20.8741C43.2408 21.0802 44.7526 21.5613 45.7835 21.9049C44.9587 10.7725 38.087 5 31.4904 5C25.3057 5 19.6021 9.46681 17.3344 16.0639C14.1735 24.86 16.2349 33.3124 20.0831 39.9783C19.7397 40.4592 19.5334 41.215 19.6021 41.971Z" fill="#764ABC"/>
</svg>
