<svg width="65" height="64" viewBox="0 0 65 64" fill="none" xmlns="http://www.w3.org/2000/svg">
<rect x="0.850586" width="64" height="64" rx="5" fill="black"/>
<path d="M59.8491 31.4042C59.7023 22.364 54.6676 13.562 46.8786 8.92702C40.7418 5.10056 32.9899 4.07065 26.0076 5.83645C15.4986 8.48515 7.12053 18.0137 6.05555 28.8738C4.73234 39.1306 9.9138 49.7981 18.7687 55.0583C27.4405 60.5027 39.2355 60.2822 47.714 54.5514C55.3571 49.5852 60.0972 40.5264 59.8407 31.4118L59.8491 31.4042ZM34.3485 55.0228C22.0759 56.2369 10.2075 45.8263 9.87583 33.502C8.94755 23.4961 15.5341 13.6 24.9409 10.289C38.1325 4.99157 54.3368 14.777 55.6963 28.9414C57.828 41.6687 47.2457 54.6257 34.3485 55.0228ZM26.2725 30.6311L44.0195 16.0992L34.4296 30.6675C31.7106 30.6675 28.9915 30.6683 26.2725 30.6311ZM31.2624 33.3179L39.4195 33.355L21.6725 47.9233L31.2624 33.3179Z" fill="#F9FAFB"/>
</svg>
