<svg width="64" height="64" viewBox="0 0 64 64" fill="none" xmlns="http://www.w3.org/2000/svg">
<g clip-path="url(#clip0_2035_954)">
<path d="M63.9884 31.295C63.8144 20.595 57.8484 10.177 48.6184 4.69099C41.3464 0.161987 32.1604 -1.05701 23.8864 1.03299C11.4334 4.16799 1.50537 15.446 0.243369 28.3C-1.32463 40.44 4.81537 53.066 15.3084 59.292C25.5844 65.736 39.5614 65.475 49.6084 58.692C58.6654 52.814 64.2824 42.092 63.9784 31.304L63.9884 31.295ZM33.7704 59.25C19.2274 60.687 5.16337 48.365 4.77037 33.778C3.67037 21.935 11.4754 10.222 22.6224 6.30299C38.2544 0.0329871 57.4564 11.615 59.0674 28.38C61.5934 43.444 49.0534 58.78 33.7704 59.25ZM24.2004 30.38L45.2304 13.18L33.8664 30.423C30.6444 30.423 27.4224 30.424 24.2004 30.38ZM30.1134 33.56L39.7794 33.604L18.7494 50.847L30.1134 33.56Z" fill="#F9FAFB"/>
</g>
<defs>
<clipPath id="clip0_2035_954">
<rect width="64" height="64" fill="white" transform="translate(0.000488281)"/>
</clipPath>
</defs>
</svg>
