<svg width="65" height="64" viewBox="0 0 65 64" fill="none" xmlns="http://www.w3.org/2000/svg">
<g clip-path="url(#clip0_2035_948)">
<path d="M32.938 12.801C24.4045 12.801 19.073 17.066 16.938 25.5995C20.137 21.334 23.8715 19.7345 28.137 20.801C30.5725 21.408 32.313 23.174 34.2405 25.131C37.3775 28.3145 41.0085 32 48.938 32C57.471 32 62.803 27.7345 64.938 19.199C61.7385 23.467 58.0045 25.0665 53.7385 24C51.3035 23.3925 49.565 21.627 47.635 19.67C44.5 16.4865 40.87 12.801 32.938 12.801ZM16.938 32C8.40499 32 3.07299 36.2655 0.937988 44.801C4.13699 40.533 7.87099 38.9335 12.137 40C14.5725 40.6075 16.313 42.373 18.2405 44.33C21.3775 47.5135 25.0085 51.199 32.938 51.199C41.471 51.199 46.803 46.934 48.938 38.4005C45.7385 42.666 42.0045 44.2655 37.7385 43.199C35.3035 42.592 33.565 40.826 31.635 38.869C28.5 35.6855 24.87 32 16.938 32Z" fill="#38BDF8"/>
</g>
<defs>
<clipPath id="clip0_2035_948">
<rect width="64" height="64" fill="white" transform="translate(0.936035)"/>
</clipPath>
</defs>
</svg>
