<svg width="65" height="64" viewBox="0 0 65 64" fill="none" xmlns="http://www.w3.org/2000/svg">
<g clip-path="url(#clip0_2035_952)">
<path d="M61.9372 0H3.93489C2.27867 0 0.936035 1.34263 0.936035 2.99886V61.0011C0.936035 62.6574 2.27867 64 3.93489 64H61.9372C63.5934 64 64.936 62.6574 64.936 61.0011V2.99886C64.936 1.34263 63.5934 0 61.9372 0Z" fill="#3178C6"/>
<path fill-rule="evenodd" clip-rule="evenodd" d="M41.426 51.518V57.654C42.5409 58.2042 43.729 58.5915 44.954 58.804C46.3696 59.0653 47.8065 59.1939 49.246 59.188C50.649 59.1946 52.0487 59.0532 53.422 58.766C54.655 58.5168 55.8314 58.0422 56.892 57.366C57.8767 56.7303 58.6883 55.8604 59.254 54.834C60.2673 52.7086 60.4009 50.2693 59.626 48.046C59.299 47.2145 58.8118 46.4555 58.192 45.812C57.5268 45.1277 56.7711 44.5375 55.946 44.058C54.9961 43.5016 54.0091 43.0111 52.992 42.59C52.192 42.258 51.472 41.9353 50.832 41.622C50.2636 41.3498 49.7196 41.0293 49.206 40.664C48.8038 40.382 48.4544 40.0313 48.174 39.628C47.9317 39.2618 47.8056 38.831 47.812 38.392C47.8067 37.9879 47.9193 37.591 48.136 37.25C48.3714 36.893 48.6854 36.5947 49.054 36.378C49.5046 36.1127 49.9948 35.9216 50.506 35.812C51.1336 35.6725 51.7751 35.6054 52.418 35.612C52.9587 35.6138 53.4986 35.6526 54.034 35.728C54.6122 35.8061 55.1842 35.9244 55.746 36.082C56.3174 36.2403 56.8763 36.4409 57.418 36.682C57.9437 36.9163 58.4465 37.1988 58.92 37.526V31.8C57.9342 31.427 56.9119 31.1589 55.87 31C54.6118 30.8169 53.3414 30.7306 52.07 30.742C50.6803 30.7345 49.2945 30.8922 47.942 31.212C46.7195 31.4913 45.5571 31.9879 44.51 32.678C43.5374 33.3259 42.7343 34.1976 42.168 35.22C41.568 36.3553 41.271 37.6263 41.306 38.91C41.2617 40.6075 41.8208 42.2658 42.884 43.59C44.1884 45.0581 45.8332 46.1837 47.674 46.868C48.514 47.2146 49.2974 47.554 50.024 47.886C50.6797 48.1777 51.3098 48.5236 51.908 48.92C52.3905 49.2338 52.8142 49.6298 53.16 50.09C53.4641 50.5073 53.6254 51.0116 53.62 51.528C53.6228 51.9149 53.5234 52.2957 53.332 52.632C53.1193 52.9933 52.8204 53.2963 52.462 53.514C52.0135 53.7874 51.5229 53.9847 51.01 54.098C50.3419 54.2473 49.6586 54.3178 48.974 54.308C47.6306 54.3055 46.298 54.0686 45.036 53.608C43.7176 53.1322 42.495 52.4244 41.426 51.518ZM31.118 36.242H39.118V31.188H16.812V36.242H24.776V58.75H31.118V36.242Z" fill="white"/>
</g>
<defs>
<clipPath id="clip0_2035_952">
<rect x="0.936035" width="64" height="64" rx="5" fill="white"/>
</clipPath>
</defs>
</svg>
