<svg width="65" height="64" viewBox="0 0 65 64" fill="none" xmlns="http://www.w3.org/2000/svg">
<path d="M54.8661 34.0001L54.5461 34.1801C54.5229 33.6637 54.3007 33.1763 53.9261 32.8201C53.6715 32.4617 53.3247 32.1787 52.9225 32.001C52.5203 31.8234 52.0776 31.7578 51.6412 31.811C51.2047 31.8643 50.7908 32.0345 50.4431 32.3037C50.0954 32.5728 49.827 32.9309 49.6661 33.3401C49.5661 33.5601 51.0861 35.5401 51.0261 35.7601C50.521 35.9859 50.0683 36.314 49.6965 36.7236C49.3247 37.1333 49.042 37.6156 48.8661 38.1401C49.0661 37.2001 48.3661 36.7601 47.3061 37.1001C46.7741 37.269 46.2926 37.5676 45.905 37.9692C45.5174 38.3708 45.236 38.8625 45.0861 39.4001C45.2261 38.4601 44.4661 37.9601 43.3861 38.2201C42.8618 38.3317 42.3801 38.5903 41.9976 38.9658C41.615 39.3413 41.3474 39.818 41.2261 40.3401C41.3261 39.4201 40.5061 38.8201 39.4061 39.0001C38.9001 39.0696 38.4308 39.3026 38.0697 39.6637C37.7086 40.0248 37.4755 40.4942 37.4061 41.0001C37.4061 40.0601 36.5861 39.4001 35.4061 39.4601C34.9147 39.4566 34.4392 39.634 34.0704 39.9586C33.7015 40.2832 33.465 40.7323 33.4061 41.2201C33.3337 40.7432 33.0915 40.3085 32.724 39.9961C32.3564 39.6837 31.8884 39.5147 31.4061 39.5201C30.3061 39.5201 29.4061 40.1601 29.4061 41.0801C29.3276 40.5575 29.0761 40.0764 28.6917 39.7138C28.3073 39.3511 27.8123 39.128 27.2861 39.0801C26.1861 38.9401 25.2861 39.5401 25.5061 40.4801C25.3784 39.9564 25.1033 39.4803 24.7134 39.1081C24.3235 38.7359 23.8351 38.4833 23.3061 38.3801C22.2261 38.1401 21.4661 38.6801 21.6461 39.6201C21.4759 39.0922 21.1792 38.6139 20.7818 38.2269C20.3844 37.8399 19.8984 37.5561 19.3661 37.4001C18.3061 37.0601 17.6061 37.5201 17.8261 38.4601C17.6061 37.5201 15.2461 33.5601 14.9861 32.9801C14.2861 31.3601 12.9861 30.8601 11.8061 31.9001C11.5219 32.2104 11.3243 32.5898 11.233 33.0005C11.1417 33.4112 11.16 33.8387 11.2861 34.2401C10.5461 34.0401 10.1661 34.4001 10.4461 35.1801C11.9261 39.5401 13.4061 43.9401 14.6261 48.3801C14.9653 50.4994 15.855 52.4925 17.2061 54.1601C18.3257 55.1317 19.6044 55.9029 20.9861 56.4401C24.9176 57.996 29.1185 58.7574 33.3461 58.6801C38.1187 58.7302 42.8327 57.6255 47.0861 55.4601C48.6219 54.7523 49.8606 53.5278 50.5861 52.0001C51.6461 49.3201 52.4261 46.5001 53.2461 43.8201C54.1861 40.7601 54.8861 37.5201 56.0861 34.6601C56.3861 33.7801 55.8261 33.4601 54.8661 34.0001Z" fill="#48A2AD"/>
<path d="M33.2061 46.2801C44.8461 46.2801 54.3061 42.4801 54.3061 37.8001C54.3061 33.1201 44.8661 29.3201 33.2061 29.3201C21.5461 29.3201 12.1061 33.1201 12.1061 37.8001C12.1061 42.4801 21.5461 46.2801 33.2061 46.2801Z" fill="url(#paint0_radial_2035_943)"/>
<path d="M51.126 25.7001C50.6936 25.2665 50.2021 24.8962 49.666 24.6001C49.666 24.6001 36.226 28.9601 26.866 28.5001C17.506 28.0401 18.866 27.0001 14.146 30.0001C14.146 30.0001 12.846 31.8601 14.426 33.0001C16.7563 34.5685 19.3032 35.788 21.986 36.6201C22.2621 36.3833 22.6041 36.2367 22.966 36.2001C31.886 33.1201 49.246 37.0601 51.126 25.7001Z" fill="url(#paint1_linear_2035_943)"/>
<path d="M51.1061 25.7C49.2261 37.04 31.8861 33.12 22.9661 36.22C22.5981 36.2563 22.2496 36.4027 21.9661 36.6399C29.1661 38.9599 37.9661 39.4399 43.8461 37.4799C51.2261 35.0199 54.5661 29.2 51.1061 25.7Z" fill="#EB5E8E"/>
<path d="M47.3061 17.3201C48.1535 17.936 48.8321 18.7553 49.2795 19.7026C49.7269 20.6498 49.9286 21.6944 49.8661 22.7401C49.8661 26.7401 46.6061 31.7001 32.1861 30.2601C17.7661 28.8201 14.1861 30.0401 14.1861 30.0401C14.1861 30.0401 9.80609 24.0401 18.9461 24.0401C27.1461 24.0401 39.3261 25.0401 42.1861 23.2201C46.4861 20.5801 46.6461 20.5001 47.3061 17.3201Z" fill="url(#paint2_linear_2035_943)"/>
<path d="M30.6661 14.42C35.0861 11.66 34.8661 7.61995 32.6661 4.19995C32.5442 4.26422 32.4503 4.37115 32.4024 4.50029C32.3544 4.62943 32.3557 4.77172 32.4061 4.89995C32.7326 5.46468 32.9161 6.10069 32.9405 6.75257C32.9649 7.40444 32.8295 8.0524 32.5461 8.63995C31.2661 10.44 28.9261 10.9 25.0661 13.04C21.2061 15.18 19.9861 17.04 19.7261 19.48C19.7229 19.5937 19.7511 19.7061 19.8075 19.8048C19.864 19.9036 19.9465 19.985 20.0461 20.04C20.8156 20.4004 21.6197 20.6819 22.4461 20.88C23.8261 17.68 27.7061 16 30.6661 14.42Z" fill="#F77CA5"/>
<path d="M40.3461 9.27994C38.3697 7.11998 35.9744 5.38478 33.3061 4.17994C33.2198 4.1344 33.1237 4.1106 33.0261 4.1106C32.9285 4.1106 32.8324 4.1344 32.7461 4.17994C34.8661 7.59994 35.1061 11.6199 30.7461 14.3999C27.8061 15.8599 23.9061 17.6599 22.6061 20.8599C24.3677 21.2961 26.1718 21.5375 27.9861 21.5799C33.6461 21.7399 41.2461 21.4399 42.5461 19.2199C43.8461 16.9999 42.6861 11.7999 40.3461 9.27994Z" fill="url(#paint3_linear_2035_943)"/>
<path d="M46.8661 16.56C46.9671 16.2932 47.0474 16.0191 47.1061 15.74C45.8123 14.1829 44.0284 13.1112 42.0461 12.7C45.8861 20.9 25.8461 19.12 20.1461 19.46C19.2447 19.4587 18.3562 19.6742 17.5556 20.0885C16.755 20.5027 16.0658 21.1034 15.5461 21.84C16.8403 21.2627 18.1777 20.7879 19.5461 20.42C28.5261 18.28 43.0661 27.26 46.8661 16.56Z" fill="#F79EBC"/>
<path d="M47.7261 17.02C47.616 16.5638 47.4264 16.1305 47.1661 15.74C47.1091 16.0219 47.022 16.2968 46.9061 16.56C43.0661 27.26 28.5261 18.28 19.5661 20.42C18.198 20.789 16.8606 21.2637 15.5661 21.84C14.9061 22.8478 14.5328 24.0162 14.4861 25.22C20.3261 23.44 24.6461 25.22 35.8861 25.4C47.1261 25.58 48.5261 20.38 47.7261 17.02Z" fill="url(#paint4_linear_2035_943)"/>
<path d="M54.8661 37.1999C53.7954 37.7101 52.9538 38.6017 52.5061 39.6999C52.7861 38.7799 52.1461 38.3999 51.1061 38.7799C50.5756 38.976 50.0928 39.2825 49.6894 39.6789C49.286 40.0754 48.9714 40.5529 48.7661 41.0799C48.9861 40.1799 48.3061 39.7399 47.2261 40.0399C46.6846 40.1558 46.1825 40.4103 45.7689 40.7784C45.3552 41.1465 45.0441 41.6156 44.8661 42.1399C45.0261 41.2599 44.2861 40.7599 43.1861 40.9599C42.6675 41.0449 42.185 41.2795 41.7978 41.6347C41.4105 41.99 41.1354 42.4505 41.0061 42.9599C41.1061 42.0999 40.3061 41.5199 39.2061 41.6399C38.7106 41.6595 38.2356 41.8429 37.8556 42.1614C37.4756 42.4799 37.212 42.9155 37.1061 43.3999C37.1061 42.5399 36.3061 41.8999 35.2061 41.9199C34.1061 41.9399 33.2061 42.6599 33.2061 43.5199C33.1209 43.054 32.8731 42.6334 32.5069 42.3331C32.1406 42.0328 31.6797 41.8722 31.2061 41.8799C30.1061 41.8799 29.2061 42.4599 29.2061 43.3199C29.1067 42.8465 28.8594 42.417 28.4999 42.0934C28.1404 41.7698 27.6873 41.569 27.2061 41.5199C26.1061 41.3799 25.2061 41.9399 25.3861 42.8199C25.2582 42.3133 24.986 41.8546 24.6026 41.4996C24.2192 41.1446 23.741 40.9085 23.2261 40.8199C22.1461 40.5999 21.3861 41.0799 21.5461 41.9599C21.3795 41.4454 21.0876 40.9804 20.6965 40.6068C20.3055 40.2332 19.8277 39.9628 19.3061 39.8199C18.2461 39.4999 17.5461 39.9199 17.7461 40.8199C17.5521 40.2914 17.2488 39.8097 16.8559 39.4065C16.463 39.0033 15.9894 38.6875 15.4661 38.4799C14.4261 38.0799 13.7861 38.4799 14.0461 39.3799C13.6115 38.2767 12.7855 37.3724 11.7261 36.8399C10.7061 36.3399 10.1261 36.6599 10.4261 37.5999C11.6461 40.4399 12.4261 43.5999 13.2861 46.5799C14.0473 49.2103 14.9418 51.8003 15.9661 54.3399C16.325 55.0423 16.8188 55.667 17.4194 56.1784C18.02 56.6897 18.7154 57.0776 19.4661 57.3199C23.8196 59.0553 28.4811 59.8855 33.1661 59.7599C37.3549 59.8587 41.5313 59.264 45.5261 57.9999C46.885 57.6053 48.1643 56.9758 49.3061 56.1399C50.6808 54.6477 51.5852 52.7833 51.9061 50.7799C53.1461 46.4399 54.6261 42.2199 56.0861 37.9599C56.4061 37.0599 55.8461 36.7399 54.8661 37.1999Z" fill="url(#paint5_linear_2035_943)"/>
<defs>
<radialGradient id="paint0_radial_2035_943" cx="0" cy="0" r="1" gradientUnits="userSpaceOnUse" gradientTransform="translate(29.1359 40.6951) rotate(90) scale(12.5 19.58)">
<stop offset="0.47" stop-color="#7A4C33"/>
<stop offset="1" stop-color="#52423C"/>
</radialGradient>
<linearGradient id="paint1_linear_2035_943" x1="13.646" y1="30.6201" x2="51.126" y2="30.6201" gradientUnits="userSpaceOnUse">
<stop stop-color="#FF85AE"/>
<stop offset="0.32" stop-color="#FF7DA9"/>
<stop offset="0.82" stop-color="#FF669A"/>
<stop offset="1" stop-color="#FF5C93"/>
</linearGradient>
<linearGradient id="paint2_linear_2035_943" x1="13.1661" y1="23.9201" x2="49.8661" y2="23.9201" gradientUnits="userSpaceOnUse">
<stop stop-color="#FFB0CB"/>
<stop offset="0.79" stop-color="#F383A9"/>
<stop offset="1" stop-color="#F0769F"/>
</linearGradient>
<linearGradient id="paint3_linear_2035_943" x1="29.1061" y1="12.8799" x2="44.0661" y2="12.8799" gradientUnits="userSpaceOnUse">
<stop stop-color="#F697B7"/>
<stop offset="0.34" stop-color="#F78FB2"/>
<stop offset="0.86" stop-color="#F878A3"/>
<stop offset="1" stop-color="#F9719F"/>
</linearGradient>
<linearGradient id="paint4_linear_2035_943" x1="14.5061" y1="20.56" x2="47.9061" y2="20.56" gradientUnits="userSpaceOnUse">
<stop stop-color="#F78FB2"/>
<stop offset="0.27" stop-color="#F887AD"/>
<stop offset="0.7" stop-color="#FC709F"/>
<stop offset="1" stop-color="#FF5C93"/>
</linearGradient>
<linearGradient id="paint5_linear_2035_943" x1="33.2661" y1="40.4799" x2="33.2661" y2="57.6399" gradientUnits="userSpaceOnUse">
<stop stop-color="#4FE8FF"/>
<stop offset="0.5" stop-color="#4BDDF3"/>
<stop offset="1" stop-color="#45CEE3"/>
</linearGradient>
</defs>
</svg>
