<svg width="64" height="64" viewBox="0 0 64 64" fill="none" xmlns="http://www.w3.org/2000/svg">
<rect width="64" height="64" rx="5" fill="white"/>
<path d="M40.752 4.73244C41.2385 5.33594 41.4865 6.15044 41.9805 7.77744L52.8085 43.3454C48.7415 41.2346 44.3763 39.7568 39.8635 38.9629L32.8145 15.1399C32.7589 14.9495 32.6429 14.7823 32.4841 14.6634C32.3253 14.5444 32.1322 14.4803 31.9338 14.4805C31.7353 14.4807 31.5424 14.5453 31.3838 14.6646C31.2253 14.7839 31.1097 14.9514 31.0545 15.1419L24.09 38.9509C19.5575 39.7415 15.1728 41.2216 11.0885 43.3399L21.9675 7.76994C22.4655 6.14494 22.7135 5.33194 23.1995 4.72844C23.6291 4.19722 24.1872 3.78451 24.821 3.52944C25.5375 3.24194 26.389 3.24194 28.0885 3.24194H35.86C37.561 3.24194 38.4125 3.24194 39.1315 3.53144C39.7657 3.78647 40.3233 4.19999 40.752 4.73244Z" fill="url(#paint0_linear_2035_936)"/>
<path d="M42.047 45.037C40.262 46.5645 36.699 47.6055 32.5955 47.6055C27.5605 47.6055 23.338 46.037 22.2185 43.9275C21.8185 45.1365 21.7285 46.5195 21.7285 47.4045C21.7285 47.4045 21.465 51.742 24.4825 54.7595C24.4825 54.3871 24.5558 54.0183 24.6984 53.6743C24.8409 53.3302 25.0498 53.0176 25.3132 52.7543C25.5765 52.491 25.8892 52.2822 26.2332 52.1397C26.5773 51.9972 26.9461 51.9239 27.3185 51.924C30.0035 51.924 30.002 54.2655 30 56.168V56.336C30 59.2225 31.7635 61.6955 34.2715 62.7385C33.885 61.9444 33.6845 61.0726 33.6855 60.1895C33.6855 57.4355 35.3005 56.412 37.1795 55.2205C38.674 54.2735 40.334 53.2205 41.4765 51.1095C42.0931 49.972 42.4154 48.6983 42.414 47.4045C42.4147 46.6011 42.2909 45.8025 42.047 45.037Z" fill="#FF5D01"/>
<path d="M42.047 45.037C40.262 46.5645 36.699 47.6055 32.5955 47.6055C27.5605 47.6055 23.338 46.037 22.2185 43.9275C21.8185 45.1365 21.7285 46.5195 21.7285 47.4045C21.7285 47.4045 21.465 51.742 24.4825 54.7595C24.4825 54.3871 24.5558 54.0183 24.6984 53.6743C24.8409 53.3302 25.0498 53.0176 25.3132 52.7543C25.5765 52.491 25.8892 52.2822 26.2332 52.1397C26.5773 51.9972 26.9461 51.9239 27.3185 51.924C30.0035 51.924 30.002 54.2655 30 56.168V56.336C30 59.2225 31.7635 61.6955 34.2715 62.7385C33.885 61.9444 33.6845 61.0726 33.6855 60.1895C33.6855 57.4355 35.3005 56.412 37.1795 55.2205C38.674 54.2735 40.334 53.2205 41.4765 51.1095C42.0931 49.972 42.4154 48.6983 42.414 47.4045C42.4147 46.6011 42.2909 45.8025 42.047 45.037Z" fill="url(#paint1_linear_2035_936)"/>
<defs>
<linearGradient id="paint0_linear_2035_936" x1="44.1498" y1="1.35559" x2="31.9477" y2="43.345" gradientUnits="userSpaceOnUse">
<stop stop-color="#000014"/>
<stop offset="1" stop-color="#150426"/>
</linearGradient>
<linearGradient id="paint1_linear_2035_936" x1="50.084" y1="32.6225" x2="39.5163" y2="54.7455" gradientUnits="userSpaceOnUse">
<stop stop-color="#FF1639"/>
<stop offset="1" stop-color="#FF1639" stop-opacity="0"/>
</linearGradient>
</defs>
</svg>
