<svg width="64" height="64" viewBox="0 0 64 64" fill="none" xmlns="http://www.w3.org/2000/svg">
<path d="M43.94 8.34803C43.512 8.09203 43.0747 7.85203 42.628 7.62803C42.1813 7.40403 41.7147 7.19469 41.228 7.00003C41.0785 6.9371 40.9278 6.87709 40.776 6.82003C40.36 6.66603 39.94 6.49403 39.51 6.37003C36.446 5.34657 33.2044 4.96345 29.9862 5.24441C26.768 5.52537 23.6418 6.46443 20.8015 8.00335C17.9612 9.54228 15.4673 11.6483 13.4744 14.1907C11.4816 16.7332 10.0322 19.658 9.2163 22.7837C8.40035 25.9093 8.23519 29.1693 8.73106 32.3615C9.22693 35.5536 10.3733 38.6099 12.099 41.3407C13.8247 44.0716 16.0929 46.4188 18.7632 48.237C21.4334 50.0551 24.4487 51.3053 27.622 51.91V58.66C41.8 56.53 54.352 45.328 55.288 30.62C55.579 26.2296 54.6781 21.8421 52.6805 17.9216C50.683 14.001 47.663 10.6932 43.94 8.34803Z" fill="#23D96C"/>
<path d="M26.342 60.1419V52.942C19.9344 51.3941 14.404 47.3643 10.9676 41.739C7.53122 36.1136 6.4702 29.3536 8.01801 22.9459C9.56581 16.5383 13.5956 11.008 19.221 7.57158C24.8463 4.13516 31.6064 3.07415 38.014 4.62195C38.6513 4.77528 39.282 4.95462 39.906 5.15995C40.238 5.25795 40.582 5.38795 40.916 5.51395L41.218 5.62595L41.724 5.82595C42.146 5.99195 42.622 6.20595 43.19 6.48595C43.6673 6.72462 44.134 6.98062 44.59 7.25395C48.5161 9.71858 51.7018 13.2001 53.8089 17.3291C55.916 21.4582 56.866 26.0806 56.558 30.7059C55.63 45.27 43.54 57.56 27.8 59.922L26.342 60.1419ZM32.17 6.46195H32.138C26.5797 6.43817 21.2129 8.49121 17.0896 12.2186C12.9663 15.9461 10.3838 21.0791 9.84834 26.6116C9.31286 32.1441 10.863 37.6772 14.1949 42.1262C17.5269 46.5752 22.4003 49.6193 27.86 50.6619L28.892 50.8619V57.15C42.722 54.454 53.184 43.47 54 30.54C54.2846 26.3822 53.4383 22.2249 51.5509 18.5093C49.6635 14.7937 46.8055 11.6584 43.28 9.43595C42.4726 8.95056 41.6279 8.52991 40.754 8.17795C40.6207 8.11795 40.4813 8.06195 40.336 8.00995L40 7.88195C39.7173 7.76995 39.4307 7.66928 39.14 7.57995C36.8897 6.84122 34.5364 6.46452 32.168 6.46395L32.17 6.46195Z" fill="#173647"/>
<path d="M27.4 16.7659C27.7563 16.7216 28.1181 16.7657 28.4533 16.8944C28.7885 17.0232 29.0869 17.2325 29.322 17.5039C29.6862 17.9021 29.9846 18.3558 30.206 18.8479C30.6791 19.6973 30.9504 20.6442 30.9989 21.6152C31.0475 22.5863 30.872 23.5555 30.486 24.4479C29.4667 24.1871 28.5118 23.7199 27.6803 23.0752C26.8488 22.4305 26.1585 21.6221 25.652 20.6999C25.3957 20.1947 25.2517 19.64 25.23 19.0739C25.2445 18.4896 25.4739 17.9312 25.8742 17.5055C26.2745 17.0797 26.8177 16.8164 27.4 16.7659ZM20.5 26.5079C20.9642 26.8506 21.4589 27.1499 21.978 27.4019C22.9186 27.8076 23.9366 28.0028 24.9606 27.9738C25.9846 27.9448 26.9898 27.6922 27.906 27.2339C27.5467 26.2977 27.0016 25.444 26.3035 24.7243C25.6054 24.0045 24.7687 23.4335 23.844 23.0459C23.2932 22.7984 22.6977 22.6657 22.094 22.6559C21.9649 22.6449 21.8351 22.6449 21.706 22.6559C21.2651 22.6751 20.8409 22.8298 20.4912 23.0991C20.1416 23.3683 19.8835 23.7388 19.7523 24.1602C19.621 24.5815 19.623 25.033 19.7579 25.4532C19.8928 25.8734 20.154 26.2417 20.506 26.5079H20.5ZM27.9 30.6759C26.6089 30.2288 25.2274 30.1072 23.878 30.3219C23.1826 30.3321 22.4958 30.4774 21.856 30.7499C21.3071 30.9442 20.8041 31.2491 20.378 31.6459C20.0198 31.9542 19.7705 32.3697 19.6669 32.8309C19.5633 33.292 19.611 33.7742 19.8028 34.2061C19.9946 34.638 20.3205 34.9967 20.7321 35.229C21.1436 35.4613 21.6191 35.5549 22.088 35.4959C22.6933 35.5 23.2917 35.3666 23.838 35.1059C24.7852 34.69 25.6355 34.0815 26.3348 33.3192C27.0341 32.5569 27.5671 31.6554 27.9 30.6759ZM31.068 33.1039C30.0675 33.4741 29.1517 34.0416 28.3748 34.7727C27.598 35.5039 26.9761 36.3837 26.546 37.3599C26.2991 37.8577 26.1659 38.4042 26.156 38.9599C26.147 39.4274 26.2797 39.8866 26.5367 40.2772C26.7937 40.6679 27.1629 40.9716 27.5957 41.1484C28.0286 41.3252 28.5048 41.3669 28.9618 41.2679C29.4188 41.1689 29.8351 40.9339 30.156 40.5939C30.4854 40.1292 30.77 39.6343 31.006 39.1159C31.4462 38.1786 31.6791 37.1574 31.6888 36.122C31.6985 35.0865 31.4847 34.0612 31.062 33.1159L31.068 33.1039ZM34.188 24.3999C35.1654 24.1133 36.0711 23.623 36.8454 22.9611C37.6196 22.2992 38.2449 21.4809 38.68 20.5599C38.9253 20.0494 39.0576 19.4921 39.068 18.9259C39.0816 18.3258 38.8624 17.7437 38.4564 17.3015C38.0504 16.8594 37.4891 16.5914 36.89 16.5539C36.5273 16.5143 36.1605 16.5646 35.8218 16.7003C35.4831 16.836 35.183 17.0529 34.948 17.3319C34.6162 17.7962 34.3296 18.2911 34.092 18.8099C33.6436 19.6764 33.4178 20.6408 33.4349 21.6163C33.452 22.5917 33.7115 23.5476 34.19 24.3979L34.188 24.3999ZM39.296 39.1079C39.2847 38.5422 39.1517 37.9855 38.906 37.4759C38.5098 36.548 37.921 35.7148 37.1787 35.0314C36.4364 34.348 35.5574 33.8301 34.6 33.5119C34.1234 34.3821 33.8511 35.3493 33.8036 36.3403C33.7562 37.3313 33.9348 38.3201 34.326 39.2319C34.5348 39.7277 34.8218 40.1869 35.176 40.5919C35.5022 40.9137 35.9127 41.1369 36.3602 41.2358C36.8077 41.3347 37.274 41.3052 37.7055 41.1508C38.1369 40.9964 38.5161 40.7233 38.7992 40.363C39.0824 40.0026 39.258 39.5696 39.306 39.1139L39.296 39.1079ZM44.396 31.4839C43.9311 31.1547 43.4363 30.8701 42.918 30.6339C42.278 30.3617 41.5913 30.2163 40.896 30.2059C39.5695 30.0954 38.237 30.3274 37.026 30.8799C37.3791 31.8057 37.9186 32.6492 38.6112 33.3579C39.3037 34.0666 40.1345 34.6255 41.052 34.9999C41.603 35.2464 42.1984 35.3784 42.802 35.3879C43.2762 35.4441 43.7558 35.3436 44.1675 35.1015C44.5791 34.8595 44.9002 34.4893 45.0816 34.0475C45.2631 33.6058 45.2948 33.1168 45.1721 32.6553C45.0494 32.1938 44.7789 31.7852 44.402 31.4919L44.396 31.4839Z" fill="#173647"/>
</svg>
