<svg width="65" height="64" viewBox="0 0 65 64" fill="none" xmlns="http://www.w3.org/2000/svg">
<g clip-path="url(#clip0_2035_946)">
<path d="M63.3045 29.1889L35.7465 1.6319C34.1605 0.0449004 31.5865 0.0449004 29.998 1.6319L24.276 7.3549L31.535 14.6139C33.2225 14.0444 35.1565 14.4264 36.501 15.7709C37.8525 17.1239 38.2315 19.0744 37.648 20.7674L44.644 27.7639C46.3365 27.1804 48.29 27.5574 49.641 28.9114C51.531 30.7999 51.531 33.8614 49.641 35.7509C49.1919 36.2003 48.6586 36.5567 48.0717 36.7999C47.4847 37.0431 46.8556 37.1683 46.2203 37.1683C45.585 37.1683 44.9558 37.0431 44.3689 36.7999C43.782 36.5567 43.2487 36.2003 42.7995 35.7509C42.1247 35.0757 41.6647 34.2159 41.4775 33.2799C41.2902 32.3438 41.384 31.3733 41.747 30.4904L35.223 23.9664L35.222 41.1369C35.6954 41.37 36.1276 41.6787 36.5015 42.0509C38.3905 43.9394 38.3905 46.9999 36.5015 48.8924C34.612 50.7809 31.5495 50.7809 29.662 48.8924C27.773 47.0004 27.773 43.9399 29.662 42.0509C30.1146 41.5976 30.6529 41.239 31.2455 40.9959V23.6664C30.6524 23.424 30.114 23.0651 29.662 22.6109C28.231 21.1809 27.8865 19.0809 28.6205 17.3229L21.464 10.1664L2.56804 29.0614C1.8057 29.824 1.37744 30.8581 1.37744 31.9364C1.37744 33.0147 1.8057 34.0488 2.56804 34.8114L30.1265 62.3684C31.7135 63.9554 34.2865 63.9554 35.876 62.3684L63.305 34.9394C64.0672 34.1766 64.4953 33.1424 64.4952 32.064C64.4951 30.9857 64.0669 29.9516 63.3045 29.1889Z" fill="#F34F29"/>
</g>
<defs>
<clipPath id="clip0_2035_946">
<rect width="64" height="64" fill="white" transform="translate(0.936035)"/>
</clipPath>
</defs>
</svg>
