<svg width="65" height="64" viewBox="0 0 65 64" fill="none" xmlns="http://www.w3.org/2000/svg">
<g clip-path="url(#clip0_2035_949)">
<mask id="mask0_2035_949" style="mask-type:alpha" maskUnits="userSpaceOnUse" x="0" y="0" width="65" height="64">
<path d="M32.936 64C50.6091 64 64.936 49.6731 64.936 32C64.936 14.3269 50.6091 0 32.936 0C15.2629 0 0.936035 14.3269 0.936035 32C0.936035 49.6731 15.2629 64 32.936 64Z" fill="black"/>
</mask>
<g mask="url(#mask0_2035_949)">
<path d="M32.936 62.9333C50.02 62.9333 63.8694 49.084 63.8694 32C63.8694 14.916 50.02 1.06665 32.936 1.06665C15.852 1.06665 2.00269 14.916 2.00269 32C2.00269 49.084 15.852 62.9333 32.936 62.9333Z" fill="black" stroke="white" stroke-width="6"/>
<path d="M54.0944 56.0071L25.5198 19.2H20.136V44.7893H24.443V24.6697L50.7134 58.6115C51.8988 57.8183 53.0281 56.9475 54.0944 56.0071Z" fill="url(#paint0_linear_2035_949)"/>
<path d="M46.0916 19.2H41.825V44.8H46.0916V19.2Z" fill="url(#paint1_linear_2035_949)"/>
</g>
</g>
<defs>
<linearGradient id="paint0_linear_2035_949" x1="39.6915" y1="41.4222" x2="52.3138" y2="57.0666" gradientUnits="userSpaceOnUse">
<stop stop-color="white"/>
<stop offset="1" stop-color="white" stop-opacity="0"/>
</linearGradient>
<linearGradient id="paint1_linear_2035_949" x1="43.9583" y1="19.2" x2="43.8868" y2="38" gradientUnits="userSpaceOnUse">
<stop stop-color="white"/>
<stop offset="1" stop-color="white" stop-opacity="0"/>
</linearGradient>
<clipPath id="clip0_2035_949">
<rect width="64" height="64" fill="white" transform="translate(0.936035)"/>
</clipPath>
</defs>
</svg>
