<svg width="63" height="64" viewBox="0 0 63 64" fill="none" xmlns="http://www.w3.org/2000/svg">
<g clip-path="url(#clip0_2035_945)">
<path d="M62.6909 38.3239C62.3188 37.1969 61.344 36.4119 60.0834 36.2235C59.489 36.1348 58.8083 36.1726 58.0027 36.3387C56.5986 36.6284 55.5569 36.7387 54.7966 36.76C57.6662 31.9152 59.9995 26.3903 61.3428 21.1896C63.5149 12.7801 62.3542 8.94911 60.9978 7.21627C57.4083 2.6296 52.1712 0.165598 45.8531 0.0902043C42.4827 0.0489922 39.5239 0.714447 37.9804 1.19299C36.5433 0.939416 34.9981 0.797841 33.3768 0.771659C30.3375 0.723174 27.6521 1.38572 25.3576 2.74742C24.0873 2.31784 22.0485 1.71226 19.6941 1.32584C14.1566 0.41675 9.6936 1.12511 6.42911 3.4313C2.47614 6.22354 0.643659 11.0749 0.982568 17.8507C1.0902 20.002 2.2936 26.5474 4.18839 32.7549C5.27736 36.3229 6.43857 39.2858 7.63978 41.5622C9.3433 44.7901 11.1661 46.6909 13.2124 47.3736C14.3593 47.7557 16.4432 48.0233 18.6349 46.1978C18.9128 46.5343 19.2834 46.8686 19.7753 47.1792C20.4 47.5731 21.1639 47.8951 21.9268 48.0858C24.6761 48.7731 27.2514 48.6012 29.4485 47.6378C29.4621 48.0286 29.4725 48.402 29.4812 48.7244C29.4958 49.2473 29.5103 49.76 29.5295 50.2395C29.6597 53.4817 29.8803 56.0027 30.5338 57.7666C30.5697 57.8635 30.618 58.0114 30.6689 58.1683C30.9949 59.1666 31.5401 60.8378 32.9273 62.1467C34.3637 63.5026 36.1011 63.9183 37.6924 63.9183C38.4904 63.9183 39.2519 63.8136 39.9198 63.6706C42.3004 63.1603 45.0041 62.3831 46.96 59.5981C48.8092 56.9654 49.7081 53 49.8708 46.752C49.8919 46.5753 49.9113 46.4066 49.93 46.2458L49.9688 45.9157L50.4044 45.954L50.5166 45.9615C52.9414 46.072 55.9062 45.5578 57.7271 44.712C59.1658 44.0444 63.7765 41.6102 62.6909 38.3239Z" fill="black"/>
<path d="M58.545 38.9628C51.3353 40.4501 50.8396 38.0091 50.8396 38.0091C58.4517 26.7139 61.634 12.3762 58.8881 8.86707C51.3962 -0.705056 38.4277 3.82197 38.2112 3.93931L38.1416 3.95191C36.7172 3.65616 35.1232 3.48016 33.3315 3.45082C30.0694 3.39749 27.5947 4.3061 25.7169 5.7301C25.7169 5.7301 2.58236 -3.80057 3.65848 17.7165C3.88733 22.294 10.2195 52.3524 17.7719 43.2734C20.5324 39.9534 23.1998 37.1463 23.1998 37.1463C24.5244 38.0263 26.1104 38.4753 27.7729 38.3141L27.9021 38.2045C27.8619 38.6166 27.8803 39.0198 27.9538 39.4971C26.0081 41.6709 26.5799 42.0525 22.6905 42.8532C18.7547 43.6644 21.0667 45.1083 22.5763 45.486C24.4064 45.9434 28.6401 46.5917 31.5007 42.5871L31.3867 43.044C32.1489 43.6547 32.6842 47.0157 32.5945 50.0627C32.5048 53.1095 32.4449 55.2014 33.0454 56.8353C33.6464 58.4692 34.2449 62.1456 39.3581 61.0501C43.6304 60.1345 45.8444 57.7619 46.1525 53.804C46.371 50.9905 46.8658 51.4065 46.8968 48.8908L47.2936 47.7C47.7511 43.886 47.3664 42.6554 49.9984 43.2278L50.6384 43.284C52.5753 43.372 55.1111 42.9723 56.5993 42.2806C59.8037 40.7936 61.7043 38.3105 58.5445 38.9628H58.545Z" fill="#336791"/>
<path d="M27.071 19.7636C26.4213 19.6732 25.833 19.7568 25.5353 19.9823C25.368 20.1091 25.3161 20.256 25.3021 20.3571C25.2647 20.625 25.4524 20.9212 25.5678 21.0739C25.8941 21.5064 26.3707 21.8036 26.8424 21.8691C26.9108 21.8788 26.9789 21.8831 27.0466 21.8831C27.8332 21.8831 28.5486 21.2705 28.6116 20.8184C28.6904 20.2521 27.8684 19.8744 27.071 19.7636ZM48.5944 19.7816C48.5324 19.3377 47.7426 19.2111 46.993 19.3154C46.2444 19.4196 45.5186 19.7576 45.5792 20.2024C45.6276 20.5483 46.2524 21.1389 46.9918 21.1389C47.0543 21.1389 47.1173 21.1348 47.1809 21.1258C47.6744 21.0574 48.0366 20.744 48.2087 20.5634C48.4706 20.288 48.6223 19.9811 48.5944 19.7816Z" fill="white"/>
<path d="M60.944 38.7939C60.6691 37.9626 59.7842 37.6952 58.3142 37.9987C53.9493 38.8996 52.3862 38.2756 51.873 37.8976C55.2657 32.7291 58.0567 26.4814 59.5624 20.6523C60.2756 17.8911 60.6696 15.3267 60.7018 13.2365C60.7374 10.9425 60.3467 9.25665 59.5408 8.22683C56.2919 4.07531 51.5234 1.8484 45.7513 1.78731C41.783 1.74271 38.4303 2.75822 37.7804 3.0438C36.4116 2.70343 34.9195 2.49447 33.295 2.4678C30.3161 2.41956 27.7411 3.13277 25.6092 4.58659C24.6831 4.24186 22.2899 3.42028 19.3631 2.94877C14.3033 2.13422 10.2824 2.75143 7.41308 4.78416C3.98932 7.20986 2.40872 11.5459 2.7149 17.6714C2.81793 19.7323 3.99223 26.0722 5.84532 32.1437C8.2846 40.135 10.9362 44.6588 13.7261 45.5895C14.0526 45.6983 14.4291 45.7745 14.8444 45.7745C15.8621 45.7745 17.1098 45.3158 18.408 43.7551C19.9914 41.8556 21.6293 40.0022 23.3197 38.1973C24.4165 38.7859 25.6213 39.1146 26.8536 39.1476C26.856 39.1798 26.8591 39.212 26.8621 39.244C26.6499 39.497 26.4422 39.7536 26.239 40.0137C25.3852 41.0976 25.2075 41.3233 22.4591 41.8891C21.6773 42.0506 19.601 42.4785 19.5704 43.934C19.5374 45.5243 22.025 46.1922 22.3084 46.263C23.296 46.5102 24.2475 46.6322 25.1549 46.6322C27.3617 46.6322 29.3038 45.9068 30.8558 44.5034C30.808 50.1728 31.0444 55.7592 31.7251 57.4613C32.2827 58.8547 33.6446 62.26 37.9467 62.2598C38.5779 62.2598 39.2727 62.1863 40.0371 62.0225C44.527 61.06 46.4768 59.0756 47.231 54.7005C47.6347 52.3623 48.3273 46.7791 48.6531 43.7842C49.3406 43.9987 50.2257 44.0969 51.1825 44.0966C53.1782 44.0966 55.481 43.6726 56.9251 43.0023C58.5474 42.2489 61.4749 40.4002 60.944 38.7939ZM50.2516 18.5563C50.2368 19.4404 50.1151 20.2431 49.9862 21.0809C49.8473 21.982 49.7038 22.9136 49.6676 24.0445C49.632 25.1451 49.7694 26.2894 49.9023 27.396C50.1709 29.6312 50.4465 31.9323 49.3796 34.2028C49.2024 33.8888 49.0445 33.5642 48.9069 33.231C48.7743 32.9095 48.4863 32.3931 48.0875 31.6785C46.5362 28.8964 42.9035 22.3815 44.7631 19.7231C45.3171 18.9318 46.7229 18.1182 50.2516 18.5563ZM45.9743 3.57762C51.1462 3.6918 55.2373 5.62659 58.1338 9.32792C60.3554 12.167 57.9091 25.085 50.8271 36.2295C50.7559 36.1389 50.6843 36.0487 50.6124 35.9587L50.5227 35.8467C52.3527 32.8244 51.9949 29.8341 51.6764 27.1829C51.5454 26.0949 51.4218 25.0673 51.4533 24.102C51.4858 23.0789 51.6211 22.2014 51.752 21.3529C51.9127 20.3073 52.0764 19.2254 52.0313 17.95C52.065 17.8162 52.0785 17.6581 52.0608 17.4705C51.9457 16.2474 50.5493 12.5871 47.7033 9.2741C46.1464 7.46198 43.8761 5.4341 40.7762 4.06634C42.1096 3.78998 43.9328 3.53228 45.9743 3.57762ZM17.0342 42.6128C15.6039 44.3325 14.6162 44.0028 14.2914 43.8947C12.175 43.1888 9.71926 38.7156 7.55417 31.6222C5.68072 25.4845 4.58593 19.3126 4.49914 17.582C4.22569 12.1085 5.55248 8.29398 8.4429 6.24404C13.1469 2.90828 20.8807 4.90489 23.9884 5.9175C23.9438 5.96162 23.8972 6.00283 23.8531 6.04768C18.7534 11.1977 18.8744 19.9968 18.887 20.5347C18.8865 20.7422 18.904 21.036 18.9277 21.4402C19.0155 22.9202 19.1789 25.6746 18.7425 28.7939C18.3372 31.6925 19.2308 34.5296 21.1937 36.5779C21.3951 36.7877 21.6069 36.9873 21.8281 37.1762C20.9544 38.1119 19.0555 40.1813 17.0342 42.6128ZM22.4836 35.3417C20.9016 33.6908 20.183 31.3946 20.512 29.0411C20.9726 25.7461 20.8027 22.8763 20.7113 21.3345C20.6984 21.1187 20.687 20.9296 20.6805 20.7805C21.4254 20.1199 24.8778 18.2702 27.3399 18.8343C28.4633 19.0916 29.1479 19.8566 29.4325 21.1725C30.9054 27.9854 29.6274 30.8249 28.6005 33.1068C28.3888 33.5769 28.1888 34.0213 28.0182 34.4809L27.8858 34.8363C27.5508 35.7347 27.239 36.5701 27.0458 37.3633C25.3639 37.3585 23.7277 36.6399 22.4836 35.3415V35.3417ZM22.7418 44.5296C22.2507 44.4069 21.809 44.1939 21.5498 44.0171C21.7663 43.9153 22.1515 43.7766 22.8196 43.639C26.0528 42.9735 26.5522 42.5037 27.6427 41.1192C27.8926 40.8016 28.176 40.4419 28.5685 40.0036L28.569 40.0031C29.1534 39.3485 29.4208 39.4596 29.9057 39.6608C30.2987 39.8232 30.6814 40.3158 30.8366 40.8579C30.9101 41.1139 30.9925 41.5997 30.7227 41.9779C28.4448 45.1672 25.1256 45.1262 22.7418 44.5296ZM39.6628 60.2756C35.7074 61.1231 34.3069 59.1049 33.384 56.7977C32.7884 55.3083 32.4955 48.5917 32.7033 41.1742C32.7059 41.0756 32.6919 40.9803 32.6647 40.8906C32.6404 40.7135 32.6035 40.5383 32.5542 40.3665C32.2453 39.2872 31.4926 38.3844 30.5896 38.0101C30.2308 37.8615 29.5724 37.5888 28.7811 37.7912C28.9498 37.0959 29.2424 36.3107 29.5597 35.4605L29.6928 35.103C29.8427 34.6998 30.0308 34.2821 30.2296 33.8399C31.3042 31.4525 32.776 28.1825 31.1787 20.7951C30.5804 18.028 28.5823 16.6768 25.5534 16.9907C23.7377 17.1786 22.0764 17.9112 21.2477 18.3313C21.0696 18.4215 20.9067 18.5088 20.7544 18.5936C20.9857 15.8057 21.8594 10.5956 25.1277 7.29907C27.1857 5.22392 29.9263 4.19895 33.2654 4.25422C39.8448 4.36186 44.064 7.73834 46.4451 10.5522C48.497 12.9766 49.608 15.4191 50.0514 16.7364C46.7168 16.3973 44.449 17.0554 43.2994 18.6991C40.7983 22.2743 44.6676 29.2135 46.5273 32.5485C46.8684 33.1597 47.1627 33.6879 47.2553 33.9124C47.8608 35.38 48.6448 36.3599 49.2172 37.0751C49.3927 37.2942 49.5629 37.5068 49.6924 37.6925C48.6824 37.9837 46.8684 38.6564 47.0337 42.0191C46.9004 43.7063 45.9522 51.606 45.4705 54.397C44.8347 58.0843 43.4778 59.4576 39.6628 60.2758V60.2756ZM56.1728 41.382C55.1401 41.8613 53.4119 42.2208 51.7702 42.2981C49.9568 42.3829 49.0337 42.0949 48.8165 41.9177C48.7147 39.8222 49.4945 39.6033 50.32 39.3716C50.4497 39.3352 50.5762 39.2996 50.6984 39.2569C50.7743 39.3187 50.8574 39.38 50.9486 39.4402C52.4061 40.4021 55.0056 40.5059 58.6756 39.7483L58.7159 39.7403C58.2208 40.2031 57.3738 40.8242 56.1728 41.382Z" fill="white"/>
</g>
<defs>
<clipPath id="clip0_2035_945">
<rect width="62.07" height="64" fill="white" transform="translate(0.866089)"/>
</clipPath>
</defs>
</svg>
