<svg width="65" height="64" viewBox="0 0 65 64" fill="none" xmlns="http://www.w3.org/2000/svg">
<g clip-path="url(#clip0_2035_950)">
<path d="M32.9361 37.7001C36.0841 37.7001 38.6361 35.1481 38.6361 32C38.6361 28.852 36.0841 26.3 32.9361 26.3C29.7881 26.3 27.2361 28.852 27.2361 32C27.2361 35.1481 29.7881 37.7001 32.9361 37.7001Z" fill="#61DAFB"/>
<path d="M54.586 22.6C53.486 22.2 52.336 21.8001 51.136 21.4501C51.436 20.25 51.686 19.05 51.886 17.9C52.936 11.3 51.786 6.65005 48.586 4.85005C47.636 4.30005 46.586 4.05005 45.386 4.05005C41.886 4.05005 37.436 6.65005 32.936 11C28.436 6.65005 23.986 4.05005 20.486 4.05005C19.286 4.05005 18.236 4.30005 17.286 4.85005C14.086 6.70005 12.936 11.35 13.986 17.9C14.186 19.05 14.436 20.25 14.736 21.4501C13.536 21.8001 12.386 22.15 11.286 22.6C5.03599 25 1.63599 28.3 1.63599 32C1.63599 35.7001 5.08599 39 11.286 41.4001C12.386 41.8001 13.536 42.2001 14.736 42.55C14.436 43.75 14.186 44.95 13.986 46.1C12.936 52.7 14.086 57.3501 17.286 59.1501C18.236 59.7001 19.286 59.9501 20.486 59.9501C24.036 59.9501 28.486 57.35 32.936 53C37.436 57.35 41.886 59.9501 45.386 59.9501C46.586 59.9501 47.636 59.7001 48.586 59.1501C51.786 57.3001 52.936 52.65 51.886 46.1C51.686 44.95 51.436 43.75 51.136 42.55C52.336 42.2001 53.486 41.8501 54.586 41.4001C60.836 39 64.236 35.7001 64.236 32C64.236 28.3 60.836 25 54.586 22.6ZM47.186 7.35005C49.236 8.55005 49.936 12.25 49.086 17.5C48.936 18.55 48.686 19.65 48.386 20.8C45.786 20.2 43.036 19.8 40.136 19.55C38.436 17.15 36.686 15 34.936 13.05C38.636 9.40005 42.386 6.90005 45.436 6.90005C46.086 6.90005 46.686 7.05005 47.186 7.35005ZM41.586 37C40.686 38.6 39.636 40.2001 38.536 41.8C36.686 41.9501 34.836 42 32.936 42C30.986 42 29.136 41.9501 27.336 41.8C26.236 40.2001 25.236 38.6 24.336 37C23.386 35.35 22.486 33.65 21.686 32C22.486 30.35 23.386 28.65 24.336 27C25.236 25.4 26.286 23.8001 27.386 22.2001C29.236 22.0501 31.086 22 32.986 22C34.936 22 36.786 22.0501 38.586 22.2001C39.686 23.8001 40.686 25.4 41.586 27C42.536 28.65 43.436 30.35 44.236 32C43.386 33.65 42.536 35.3 41.586 37ZM45.736 35.35C46.486 37.1 47.086 38.8 47.636 40.5C45.936 40.9001 44.136 41.2001 42.236 41.4501C42.836 40.5 43.486 39.5 44.036 38.4501C44.636 37.4001 45.186 36.35 45.736 35.35ZM32.936 48.9001C31.736 47.6001 30.586 46.2001 29.486 44.75C30.636 44.8 31.786 44.85 32.936 44.85C34.086 44.85 35.236 44.8 36.386 44.75C35.286 46.2001 34.136 47.6001 32.936 48.9001ZM23.636 41.4001C21.736 41.1501 19.936 40.8501 18.236 40.4501C18.786 38.8 19.386 37.05 20.136 35.3C20.686 36.3 21.236 37.35 21.836 38.35C22.436 39.45 23.036 40.4001 23.636 41.4001ZM20.136 28.65C19.386 26.9 18.786 25.2001 18.236 23.5C19.936 23.1 21.736 22.8 23.636 22.55C23.036 23.5 22.386 24.5 21.836 25.55C21.236 26.6 20.686 27.65 20.136 28.65ZM32.936 15.1C34.136 16.4 35.286 17.8 36.386 19.25C35.236 19.2 34.086 19.15 32.936 19.15C31.786 19.15 30.636 19.2 29.486 19.25C30.586 17.8 31.736 16.4 32.936 15.1ZM44.036 25.6L42.236 22.6C44.136 22.85 45.936 23.15 47.636 23.55C47.086 25.2 46.486 26.9501 45.736 28.7001C45.186 27.6501 44.636 26.6 44.036 25.6ZM16.786 17.5C15.936 12.25 16.636 8.55005 18.686 7.35005C19.186 7.05005 19.786 6.90005 20.436 6.90005C23.436 6.90005 27.186 9.35005 30.936 13.05C29.186 14.95 27.436 17.15 25.736 19.55C22.836 19.8 20.086 20.25 17.486 20.8C17.186 19.65 16.986 18.55 16.786 17.5ZM4.43599 32C4.43599 29.65 7.28599 27.15 12.286 25.3C13.286 24.9 14.386 24.55 15.486 24.25C16.286 26.75 17.286 29.4 18.486 32.05C17.286 34.7 16.236 37.3 15.486 39.8C8.58599 37.8 4.43599 34.8 4.43599 32ZM18.686 56.6501C16.636 55.4501 15.936 51.75 16.786 46.5C16.936 45.4501 17.186 44.3501 17.486 43.2001C20.086 43.8 22.836 44.2001 25.736 44.4501C27.436 46.8501 29.186 49 30.936 50.9501C27.236 54.6001 23.486 57.1 20.436 57.1C19.786 57.1 19.186 56.9501 18.686 56.6501ZM49.086 46.5C49.936 51.75 49.236 55.4501 47.186 56.6501C46.686 56.9501 46.086 57.1 45.436 57.1C42.436 57.1 38.686 54.6501 34.936 50.9501C36.686 49.05 38.436 46.8501 40.136 44.4501C43.036 44.2001 45.786 43.75 48.386 43.2001C48.686 44.3501 48.886 45.4501 49.086 46.5ZM53.586 38.7001C52.586 39.1001 51.486 39.4501 50.386 39.75C49.586 37.25 48.586 34.6 47.386 31.9501C48.586 29.3001 49.636 26.7001 50.386 24.2001C57.286 26.2001 61.436 29.2001 61.436 32C61.436 34.35 58.536 36.8501 53.586 38.7001Z" fill="#61DAFB"/>
</g>
<defs>
<clipPath id="clip0_2035_950">
<rect width="64" height="64" fill="white" transform="translate(0.936035)"/>
</clipPath>
</defs>
</svg>
