<svg width="64" height="64" viewBox="0 0 64 64" fill="none" xmlns="http://www.w3.org/2000/svg">
<path d="M41.846 24.334C41.85 25.3929 41.5398 26.4292 40.9548 27.3119C40.3698 28.1945 39.5362 28.8839 38.5594 29.2927C37.5826 29.7016 36.5065 29.8117 35.4672 29.6089C34.4278 29.4062 33.4719 28.8999 32.7204 28.1539C31.9688 27.408 31.4553 26.4559 31.2449 25.4181C31.0344 24.3803 31.1364 23.3034 31.538 22.3236C31.9396 21.3438 32.6227 20.505 33.5009 19.9134C34.3792 19.3218 35.4131 19.004 36.472 19H36.512C37.9267 19 39.2834 19.562 40.2837 20.5623C41.2841 21.5626 41.846 22.9193 41.846 24.334Z" fill="#FFC131"/>
<path d="M27.526 44.97C30.4719 44.97 32.86 42.5819 32.86 39.636C32.86 36.6901 30.4719 34.302 27.526 34.302C24.5801 34.302 22.192 36.6901 22.192 39.636C22.192 42.5819 24.5801 44.97 27.526 44.97Z" fill="#24C8DB"/>
<path d="M47.582 41.4619C45.4317 42.8427 43.0451 43.815 40.542 44.3299C41.2627 42.2583 41.5028 40.0499 41.244 37.8719C43.367 37.1269 45.2849 35.8928 46.8426 34.2694C48.4004 32.646 49.5543 30.6789 50.2111 28.527C50.8679 26.375 51.0091 24.0988 50.6234 21.8822C50.2376 19.6656 49.3357 17.5709 47.9906 15.7674C46.6454 13.9639 44.8948 12.5022 42.8802 11.5005C40.8655 10.4988 38.6435 9.98519 36.3936 10.0012C34.1438 10.0172 31.9293 10.5624 29.9291 11.5927C27.929 12.623 26.1993 14.1094 24.88 15.9319C22.1617 16.2437 19.5164 17.0168 17.058 18.2179C18.0377 15.0917 19.756 12.2474 22.0675 9.9257C24.3789 7.60399 27.2156 5.87312 30.3374 4.87953C33.4593 3.88593 36.7745 3.65882 40.0027 4.21743C43.2309 4.77603 46.277 6.1039 48.8835 8.08872C51.49 10.0735 53.58 12.6569 54.977 15.6203C56.3739 18.5837 57.0365 21.84 56.9089 25.1137C56.7812 28.3873 55.867 31.5821 54.2435 34.4277C52.62 37.2733 50.3351 39.6861 47.582 41.4619ZM17.298 21.9479L22.298 22.5479C22.4213 21.5804 22.6363 20.6268 22.94 19.6999C20.9579 20.1643 19.0563 20.922 17.298 21.9479Z" fill="#FFC131"/>
<path d="M16.416 22.5101C18.5782 21.1061 20.9876 20.126 23.516 19.6221C22.752 21.6905 22.4781 23.9079 22.716 26.1001C20.6022 26.8574 18.6957 28.1004 17.1502 29.7292C15.6046 31.358 14.4632 33.327 13.8177 35.4776C13.1722 37.6282 13.0408 39.9003 13.434 42.111C13.8271 44.3216 14.734 46.4091 16.0814 48.2052C17.4288 50.0013 19.1792 51.456 21.1916 52.452C23.204 53.4479 25.4221 53.9574 27.6674 53.9394C29.9127 53.9214 32.1224 53.3764 34.1186 52.3482C36.1147 51.3201 37.8415 49.8376 39.16 48.0201C41.875 47.7163 44.5194 46.957 46.982 45.7741C45.9993 48.9001 44.2786 51.7436 41.9654 54.0644C39.6521 56.3852 36.8142 58.1151 33.6914 59.108C30.5686 60.1008 27.2528 60.3274 24.024 59.7686C20.7952 59.2098 17.7483 57.882 15.1408 55.8974C12.5333 53.9128 10.4419 51.3298 9.04312 48.3665C7.64436 45.4033 6.97942 42.1469 7.10448 38.8725C7.22953 35.598 8.14092 32.4018 9.76162 29.5539C11.3823 26.706 13.6647 24.29 16.416 22.5101Z" fill="#24C8DB"/>
</svg>
